<?xml version="1.0" encoding="UTF-8" standalone="no"?>
<svg width="500px" height="500px" viewBox="0 0 500 500" version="1.1" xmlns="http://www.w3.org/2000/svg" xmlns:xlink="http://www.w3.org/1999/xlink">
    <!-- Generator: Sketch 41.2 (35397) - http://www.bohemiancoding.com/sketch -->
    <title>udacity-logo</title>
    <desc>Created with Sketch.</desc>
    <defs></defs>
    <g id="Page-1" stroke="none" stroke-width="1" fill="none" fill-rule="evenodd">
        <g id="udacity-seeklogo.com" fill="#22AAD3">
            <path d="M460,277.5 C458.75,286.25 455,295 452.5,302.5 C448.75,310 445,317.5 440,325 C435,332.5 420,351.25 400,362.5 C380,373.75 361.25,377.5 350,380 C357.5,360 362.5,340 362.5,317.5 L362.5,96.25 L462.5,38.75 L462.5,250 C462.5,260 462.5,268.75 460,277.5 Z M247.5,452.5 C238.75,456.25 226.25,461.25 216.25,463.75 C206.25,466.25 197.5,466.25 187.5,466.25 C177.5,466.25 167.5,465 157.5,462.5 C147.5,460 138.75,457.5 130,453.75 C121.25,450 112.5,445 105,440 C82.5,426.25 71.25,413.75 62.5,400 C57.5,392.5 52.5,383.75 48.75,375 C45,366.25 42.5,356.25 40,346.25 C37.5,336.25 37.5,326.25 37.5,316.25 L37.5,115 L162.5,38.75 L162.5,250 C162.5,330 221.25,397.5 296.25,413.75 C293.75,417.5 291.25,421.25 287.5,423.75 C273.75,437.5 262.5,446.25 247.5,452.5 Z M166.25,0 L0,96.25 L0,316.25 C0,417.5 81.25,500 182.5,500 C216.25,500 247.5,491.25 275,476.25 L410,398.75 C463.75,370 500,315 500,250 L500,20 L467.5,1.25 L325,77.5 L325,317.5 C325,327.5 323.75,337.5 322.5,347.5 C320,357.5 317.5,366.25 313.75,375 L310,382.5 C305,382.5 273.75,371.25 257.5,360 C250,355 243.75,350 237.5,343.75 C231.25,337.5 226.25,331.25 221.25,323.75 C216.25,316.25 212.5,308.75 208.75,301.25 C205,293.75 202.5,285 201.25,276.25 C200,267.5 200,258.75 200,250 L200,20 L166.25,0 L166.25,0 Z" id="udacity-logo"></path>
        </g>
    </g>
</svg>